<svg xmlns="http://www.w3.org/2000/svg" viewBox="0 0 17.5 20">
<defs><style>.cls-1{fill:#cfcfcf;}</style></defs>
<path class="cls-1" d="M15.45,0H2.05A2.05,2.05,0,0,0,0,2.06V15.58a2.05,2.05,0,0,0,2.05,2.06H13.39l-.53-1.85L14.14,17l1.21,1.12L17.5,20V2.06A2.05,2.05,0,0,0,15.45,0ZM11.59,13.06s-.36-.43-.66-.81a3.16,3.16,0,0,0,1.81-1.19,5.72,5.72,0,0,1-1.15.59,6.58,6.58,0,0,1-1.45.43,7,7,0,0,1-2.59,0,8.39,8.39,0,0,1-1.47-.43,5.86,5.86,0,0,1-.73-.34l-.09-.05,0,0-.28-.17a3.11,3.11,0,0,0,1.75,1.18L6,13.06a3.63,3.63,0,0,1-3-1.52A13.39,13.39,0,0,1,4.41,5.71a5,5,0,0,1,2.81-1l.1.12A6.75,6.75,0,0,0,4.69,6.09s.22-.12.59-.29a7.51,7.51,0,0,1,2.27-.63l.17,0a8.46,8.46,0,0,1,2,0,8.15,8.15,0,0,1,3,1,6.66,6.66,0,0,0-2.49-1.27l.14-.16a5,5,0,0,1,2.81,1,13.39,13.39,0,0,1,1.44,5.83A3.66,3.66,0,0,1,11.59,13.06ZM6.94,8.39a1.11,1.11,0,0,0,0,2.22A1.07,1.07,0,0,0,8,9.5a1.06,1.06,0,0,0-1-1.11m3.65,0a1.11,1.11,0,1,0,1,1.11,1.07,1.07,0,0,0-1-1.11"/>
</svg>