<svg xmlns="http://www.w3.org/2000/svg" viewBox="0 0 120 40">
    <defs><style>.cls-1{fill:#cfcfcf;}</style></defs>
    <path class="cls-1" d="M66.68,6.63v27.5H61.33l-3.18-12.5v12.5h-5.1V6.63h5.1L61.58,19V6.63Z"/>
    <path class="cls-1" d="M82.23,23.26H74.64v4.88a6.42,6.42,0,0,0,.19,2,.72.72,0,0,0,.73.44.87.87,0,0,0,.89-.59,7.55,7.55,0,0,0,.22-2.27v-3h5.56v1.67A17.23,17.23,0,0,1,82,29.6,7,7,0,0,1,81,32a5.34,5.34,0,0,1-2.09,1.91,7,7,0,0,1-3.19.64,8,8,0,0,1-3.28-.63,5.34,5.34,0,0,1-2.21-1.72,6.67,6.67,0,0,1-1.09-2.41A17.89,17.89,0,0,1,68.78,26V19.37a12.74,12.74,0,0,1,.69-4.66A5.05,5.05,0,0,1,71.7,12.1a6.86,6.86,0,0,1,3.57-.91,7,7,0,0,1,4.06,1.09,5.86,5.86,0,0,1,2.25,2.91,15.87,15.87,0,0,1,.65,5.08Zm-5.88-3.67V18a9.49,9.49,0,0,0-.16-2.26.63.63,0,0,0-.65-.51c-.4,0-.66.14-.75.43A10.2,10.2,0,0,0,74.64,18v1.64Z"/>
    <path class="cls-1" d="M89.93,11.59l-.1,2.15a5.18,5.18,0,0,1,1.62-1.92,3.79,3.79,0,0,1,2.15-.63,4.11,4.11,0,0,1,3.69,2.55A5.91,5.91,0,0,1,99,11.82a3.83,3.83,0,0,1,4.52.22,3.74,3.74,0,0,1,1.26,2.08,20.6,20.6,0,0,1,.27,4v16h-5.7V19.44a22.42,22.42,0,0,0-.17-3.57.76.76,0,0,0-.77-.69.78.78,0,0,0-.81.68,19.49,19.49,0,0,0-.18,3.58V34.13H91.73V19.81a31.46,31.46,0,0,0-.14-4,.73.73,0,0,0-.76-.66.81.81,0,0,0-.67.35,1.45,1.45,0,0,0-.31.85V34.13H84.14V11.59Z"/>
    <path class="cls-1" d="M112.26,20.32h-5.49V18.81a12.89,12.89,0,0,1,.51-4,5.41,5.41,0,0,1,2.07-2.51,8.42,8.42,0,0,1,8.51.15,4.86,4.86,0,0,1,1.82,3,56.86,56.86,0,0,1,.3,7.38v11.3h-5.7v-2A4.28,4.28,0,0,1,112.9,34a3.44,3.44,0,0,1-2,.6,4.48,4.48,0,0,1-2.82-1c-.85-.67-1.28-2.15-1.28-4.43V27.25a6.22,6.22,0,0,1,.68-3.44,9.05,9.05,0,0,1,3.38-2.14c1.92-.89,3-1.48,3.09-1.79a5.63,5.63,0,0,0,.2-1.87,7.14,7.14,0,0,0-.22-2.3.79.79,0,0,0-.75-.53.68.68,0,0,0-.74.45,11.37,11.37,0,0,0-.15,2.33Zm1.86,3.09a5,5,0,0,0-1.63,2,9.68,9.68,0,0,0-.23,2.34,8.17,8.17,0,0,0,.2,2.26.77.77,0,0,0,.78.51.7.7,0,0,0,.71-.4,7.08,7.08,0,0,0,.17-2.1Z"/>
    <path class="cls-1" d="M39.51,15c-.41,0-.66.15-.75.44a10.11,10.11,0,0,0-.15,2.33v1.65h1.71V17.78a9,9,0,0,0-.16-2.26A.62.62,0,0,0,39.51,15Z"/><path class="cls-1" d="M0,0V40H48.5V0ZM15.41,31.27a5,5,0,0,1-2.26,2.33,7.91,7.91,0,0,1-3.92.94,7.75,7.75,0,0,1-4.18-1.08,5,5,0,0,1-2.27-2.77,16.3,16.3,0,0,1-.54-4.77v-1.8H7.92v3.34a5.19,5.19,0,0,0,.24,2A.88.88,0,0,0,9,29.9a1,1,0,0,0,.9-.56,3.63,3.63,0,0,0,.3-1.66,6,6,0,0,0-.56-3.18A18.85,18.85,0,0,0,6.79,22a28.15,28.15,0,0,1-3-2.56,6.07,6.07,0,0,1-1.22-2.21,11,11,0,0,1-.49-3.6A11.41,11.41,0,0,1,2.75,9,5,5,0,0,1,5,6.72a7.7,7.7,0,0,1,3.71-.83,8.51,8.51,0,0,1,4,.9A4.58,4.58,0,0,1,15,9.06a14.05,14.05,0,0,1,.54,4.65l0,1.08H9.83v-2A4.62,4.62,0,0,0,9.62,11a.78.78,0,0,0-.73-.39.89.89,0,0,0-.83.52,3.51,3.51,0,0,0-.29,1.6,5.05,5.05,0,0,0,.32,2.07,4.91,4.91,0,0,0,1.73,1.69c2.72,1.85,4.44,3.39,5.18,4.61s1.06,3.17,1,5.86A12,12,0,0,1,15.41,31.27ZM31,20.11v3H23.44V28a5.87,5.87,0,0,0,.19,2,.69.69,0,0,0,.72.44.87.87,0,0,0,.89-.58,7.56,7.56,0,0,0,.23-2.27v-3H31v1.66a18.18,18.18,0,0,1-.22,3.21,7.26,7.26,0,0,1-1.05,2.4,5.51,5.51,0,0,1-2.1,1.91,7.13,7.13,0,0,1-3.18.63,8.18,8.18,0,0,1-3.28-.62A5.22,5.22,0,0,1,19,32a6.52,6.52,0,0,1-1.1-2.41,17.58,17.58,0,0,1-.3-3.83V19.21a13,13,0,0,1,.68-4.66,5.16,5.16,0,0,1,2.23-2.62A7,7,0,0,1,24.06,11a7.08,7.08,0,0,1,4.07,1.1A5.87,5.87,0,0,1,30.38,15,16,16,0,0,1,31,20.11Zm15.2,3H38.61V28a6.42,6.42,0,0,0,.19,2,.71.71,0,0,0,.72.44.86.86,0,0,0,.9-.58,7.24,7.24,0,0,0,.22-2.27v-3H46.2v1.66A17,17,0,0,1,46,29.43a7,7,0,0,1-1,2.4,5.37,5.37,0,0,1-2.1,1.91,7.07,7.07,0,0,1-3.18.63,8.21,8.21,0,0,1-3.28-.62A5.45,5.45,0,0,1,34.15,32a6.48,6.48,0,0,1-1.08-2.41,17,17,0,0,1-.31-3.83V19.21a13,13,0,0,1,.68-4.66,5.16,5.16,0,0,1,2.23-2.62,7.69,7.69,0,0,1,7.63.17A5.76,5.76,0,0,1,45.55,15a15.39,15.39,0,0,1,.65,5.09Z"/>
    <path class="cls-1" d="M24.35,15a.69.69,0,0,0-.76.44,10.7,10.7,0,0,0-.14,2.33v1.65h1.68V17.78A10.06,10.06,0,0,0,25,15.52.65.65,0,0,0,24.35,15Z"/>
</svg>